<svg xmlns="http://www.w3.org/2000/svg" width="326.35" height="30" viewBox="0 0 326.35 30"><g id="Raggruppa_483" data-name="Raggruppa 483" transform="translate(-30 -17)"><g id="Raggruppa_123" data-name="Raggruppa 123" transform="translate(30 26.123)"><g id="Raggruppa_120" data-name="Raggruppa 120"><path id="Tracciato_96" data-name="Tracciato 96" d="M0,3.359V23.8H4.2v-9.12h7.99V11.032H4.2v-4.2H14.5V3.359Z" transform="translate(0 -3.359)" fill="#ada599"></path><path id="Tracciato_97" data-name="Tracciato 97" d="M23.318,13.346c-2.116,0-3.446,1.65-3.446,4.2,0,2.983,1.852,4.255,3.531,4.255,1.852,0,3.53-1.445,3.387-4.429-.115-2.314-1.331-4.023-3.472-4.023m5.816,9.289a7.436,7.436,0,0,1-5.817,2.61,7.275,7.275,0,0,1-5.155-2.026,8.192,8.192,0,0,1-2.2-5.7c0-3.788,2.374-7.583,7.5-7.583,4.919,0,7.032,3.676,7.264,7.005a8.837,8.837,0,0,1-1.591,5.7" transform="translate(-2.525 -4.399)" fill="#ada599"></path><path id="Tracciato_98" data-name="Tracciato 98" d="M48.907,24.836H45.141V16.671a4.52,4.52,0,0,0-.492-2.344,2.134,2.134,0,0,0-1.823-.983,2.959,2.959,0,0,0-1.273.317c-1.594.9-1.65,2.694-1.684,3.85v7.324H36.106V10.355h3.648l-.029,1.39a5.727,5.727,0,0,1,4.141-1.822,5.815,5.815,0,0,1,1.968.349c2.923,1.094,3.01,3.7,3.068,5.352Z" transform="translate(-5.712 -4.397)" fill="#ada599"></path><path id="Tracciato_99" data-name="Tracciato 99" d="M64.2,14.881a2.862,2.862,0,0,0-2.983-2.46c-2.4,0-3.444,2.025-3.444,4.168,0,2.75,1.736,4.11,3.415,4.11a3.091,3.091,0,0,0,1.331-.288c1.709-.81,1.737-2.317,1.737-4.139A9.374,9.374,0,0,0,64.2,14.88M67.993,23.8H64.259V22.7a5.233,5.233,0,0,1-3.908,1.535c-3.62,0-6.426-3.069-6.426-7.5,0-4.514,2.663-7.844,6.716-7.844a5.1,5.1,0,0,1,3.62,1.3V3.362h3.734Z" transform="translate(-8.531 -3.36)" fill="#ada599"></path><path id="Tracciato_100" data-name="Tracciato 100" d="M79.938,18.581c-1.331.232-2.862.522-2.862,1.936,0,.781.607,1.563,2.141,1.563a3.779,3.779,0,0,0,2.433-.87c.842-.75.842-1.331.842-3.268a13.763,13.763,0,0,1-2.548.636m2.838,6.253a10.437,10.437,0,0,1-.173-1.129,5.852,5.852,0,0,1-4.256,1.563c-2.9,0-5.095-1.535-5.095-4.574a5.031,5.031,0,0,1,.4-2.083c.985-2.056,2.895-2.374,5.819-2.836a10.119,10.119,0,0,0,3.01-.758c0-.842,0-2.172-2.548-2.172-2.459,0-2.61,1.1-2.72,1.936H73.779a4.6,4.6,0,0,1,1.936-3.817,8.1,8.1,0,0,1,4.344-1.044,8.843,8.843,0,0,1,4.515,1.044c1.36.953,1.594,1.907,1.594,3.7v6.541a9.623,9.623,0,0,0,.577,3.62Z" transform="translate(-11.589 -4.395)" fill="#ada599"></path><path id="Tracciato_101" data-name="Tracciato 101" d="M103.551,24.918H90.958V21.791l7.408-8.4H91.824V10.443h11.2v2.464l-7.554,8.884h8.075Z" transform="translate(-14.389 -4.48)" fill="#ada599"></path><path id="Tracciato_102" data-name="Tracciato 102" d="M111.5,23.8H107.74V9.32H111.5Zm0-16.761H107.74V3.363H111.5Z" transform="translate(-17.044 -3.36)" fill="#ada599"></path><path id="Tracciato_103" data-name="Tracciato 103" d="M122.14,13.346c-2.114,0-3.445,1.65-3.445,4.2,0,2.983,1.852,4.255,3.536,4.255,1.852,0,3.531-1.445,3.386-4.429-.115-2.314-1.333-4.023-3.473-4.023m5.815,9.289a7.431,7.431,0,0,1-5.819,2.61,7.271,7.271,0,0,1-5.154-2.026,8.192,8.192,0,0,1-2.2-5.7c0-3.788,2.374-7.583,7.492-7.583,4.923,0,7.035,3.676,7.267,7.005a8.851,8.851,0,0,1-1.592,5.7" transform="translate(-18.159 -4.399)" fill="#ada599"></path><path id="Tracciato_104" data-name="Tracciato 104" d="M147.735,24.836h-3.762V16.671a4.511,4.511,0,0,0-.492-2.344,2.136,2.136,0,0,0-1.823-.983,2.97,2.97,0,0,0-1.274.317c-1.593.9-1.647,2.694-1.678,3.85v7.324h-3.763V10.355h3.643l-.029,1.39A5.725,5.725,0,0,1,142.7,9.923a5.817,5.817,0,0,1,1.969.349c2.924,1.094,3.011,3.7,3.069,5.352Z" transform="translate(-21.347 -4.397)" fill="#ada599"></path><path id="Tracciato_105" data-name="Tracciato 105" d="M162.858,15.632a2.821,2.821,0,0,0-.81-1.883,3,3,0,0,0-2.116-.811,3.144,3.144,0,0,0-2,.666,3.3,3.3,0,0,0-1.186,2.027Zm4.167,6.281a7.751,7.751,0,0,1-1.706,1.8,8.29,8.29,0,0,1-4.892,1.534A7.446,7.446,0,0,1,152.779,18q-.008-.275.005-.55c0-4.546,3.068-7.526,7.24-7.526a6.542,6.542,0,0,1,5.325,2.431,9.472,9.472,0,0,1,1.883,5.935h-10.48a3.616,3.616,0,0,0,3.685,3.545c.065,0,.13,0,.194-.009a3.955,3.955,0,0,0,3.3-1.709Z" transform="translate(-24.168 -4.398)" fill="#ada599"></path></g><g id="Raggruppa_121" data-name="Raggruppa 121" transform="translate(149.104)"><path id="Tracciato_106" data-name="Tracciato 106" d="M4.141,47.716h2.17c.521,0,1.043-.029,1.564-.058a3.534,3.534,0,0,0,3.184-1.768,3.489,3.489,0,0,0,.316-1.536,3.956,3.956,0,0,0-.287-1.562C10.305,41,8.452,40.968,7.033,40.939H4.14Zm0,10.363H0V37.613H7.7c1.826.028,4.053.028,5.819,1.793a6.882,6.882,0,0,1,1.823,4.749,7.359,7.359,0,0,1-2.084,5.153c-1.883,1.823-3.993,1.88-5.961,1.909H4.141Z" transform="translate(0 -37.613)" fill="#00284a"></path><path id="Tracciato_107" data-name="Tracciato 107" d="M23.664,58.085H19.9V43.612h3.765Zm0-16.759H19.9V37.648h3.765Z" transform="translate(-3.148 -37.619)" fill="#00284a"></path><path id="Tracciato_108" data-name="Tracciato 108" d="M36.521,49.917a2.807,2.807,0,0,0-.809-1.883,3,3,0,0,0-2.116-.808,3.147,3.147,0,0,0-2,.663,3.3,3.3,0,0,0-1.186,2.028ZM40.689,56.2a7.81,7.81,0,0,1-1.707,1.8,8.28,8.28,0,0,1-4.891,1.533,7.445,7.445,0,0,1-7.65-7.235q-.008-.277.005-.552c0-4.546,3.07-7.526,7.24-7.526a6.545,6.545,0,0,1,5.326,2.429,9.479,9.479,0,0,1,1.882,5.936H30.414a3.827,3.827,0,0,0,.4,1.593,3.767,3.767,0,0,0,3.476,1.936,3.955,3.955,0,0,0,3.3-1.709Z" transform="translate(-4.182 -38.657)" fill="#00284a"></path><path id="Tracciato_109" data-name="Tracciato 109" d="M49.654,51.491a12.076,12.076,0,0,0,.118,2.345c.168.724.491,1.36,2.025,1.36.29,0,.578-.029.955-.059v3.3c-.694.059-1.477.146-2.517.146a5.986,5.986,0,0,1-2.778-.434,3.128,3.128,0,0,1-1.447-3.04v-8.8h-2V43.761h2v-5.15h3.647v5.15h3.1v2.548h-3.1Z" transform="translate(-6.963 -37.771)" fill="#00284a"></path><path id="Tracciato_110" data-name="Tracciato 110" d="M60.192,59.144H56.458V44.671H60.05v1.913a4.534,4.534,0,0,1,3.966-2.232,5.364,5.364,0,0,1,1.159.116v3.445c-.375-.026-.464-.026-.7-.026a5.025,5.025,0,0,0-2.055.4c-2.172.9-2.2,2.838-2.229,4.168Z" transform="translate(-8.931 -38.679)" fill="#00284a"></path><path id="Tracciato_111" data-name="Tracciato 111" d="M74.01,47.631c-2.115,0-3.443,1.65-3.443,4.2,0,2.981,1.852,4.254,3.531,4.254,1.852,0,3.531-1.447,3.386-4.427-.115-2.317-1.329-4.026-3.473-4.026m5.819,9.292a7.43,7.43,0,0,1-5.819,2.61,7.274,7.274,0,0,1-5.154-2.027,8.2,8.2,0,0,1-2.2-5.7c0-3.788,2.371-7.582,7.5-7.582,4.918,0,7.032,3.675,7.263,7.006a8.85,8.85,0,0,1-1.592,5.7" transform="translate(-10.545 -38.658)" fill="#00284a"></path><path id="Tracciato_112" data-name="Tracciato 112" d="M94.842,47.716h2.171c.518,0,1.039-.029,1.561-.058a3.181,3.181,0,0,0,3.5-3.3,3.955,3.955,0,0,0-.29-1.562C101,41,99.152,40.968,97.736,40.939h-2.9Zm0,10.363H90.7V37.613h7.7c1.822.028,4.05.028,5.819,1.793a6.884,6.884,0,0,1,1.822,4.749,7.371,7.371,0,0,1-2.082,5.153c-1.881,1.823-4,1.88-5.963,1.909H94.844Z" transform="translate(-14.348 -37.613)" fill="#00284a"></path><path id="Tracciato_113" data-name="Tracciato 113" d="M114.7,58.084h-3.765V43.611H114.7Zm0-16.759h-3.765V37.647H114.7Z" transform="translate(-17.55 -37.618)" fill="#00284a"></path><path id="Tracciato_114" data-name="Tracciato 114" d="M123.117,51.491a11.947,11.947,0,0,0,.118,2.345c.168.724.491,1.36,2.025,1.36.287,0,.579-.029.954-.059v3.3c-.693.059-1.475.146-2.518.146a5.976,5.976,0,0,1-2.778-.434,3.133,3.133,0,0,1-1.444-3.04v-8.8h-2V43.761h2v-5.15h3.644v5.15h2.905v2.548h-2.905Z" transform="translate(-18.584 -37.771)" fill="#00284a"></path><path id="Tracciato_115" data-name="Tracciato 115" d="M134.346,51.491a12.49,12.49,0,0,0,.115,2.345c.173.724.492,1.361,2.025,1.361.292,0,.578-.029.957-.06v3.3c-.7.059-1.479.146-2.518.146a5.954,5.954,0,0,1-2.778-.434,3.112,3.112,0,0,1-1.448-3.04v-8.8h-1.806V43.761H130.7v-5.15h3.647v5.15h3.1v2.548h-3.1Z" transform="translate(-20.39 -37.771)" fill="#00284a"></path><path id="Tracciato_116" data-name="Tracciato 116" d="M145.526,58.085h-3.76V43.612h3.76Zm0-16.759h-3.76V37.648h3.76Z" transform="translate(-22.426 -37.619)" fill="#00284a"></path><path id="Tracciato_117" data-name="Tracciato 117" d="M162.436,59.123H158.67V50.957a4.487,4.487,0,0,0-.493-2.345,2.129,2.129,0,0,0-1.822-.982,2.977,2.977,0,0,0-1.274.316c-1.6.9-1.65,2.694-1.684,3.853v7.324h-3.761V44.65h3.654l-.03,1.39a5.713,5.713,0,0,1,4.141-1.823,5.8,5.8,0,0,1,1.966.349c2.923,1.094,3.012,3.7,3.07,5.355Z" transform="translate(-23.671 -38.658)" fill="#00284a"></path><path id="Tracciato_118" data-name="Tracciato 118" d="M172.629,58.084h-3.762V43.611h3.761Zm0-16.759h-3.762V37.647h3.761Z" transform="translate(-26.713 -37.618)" fill="#00284a"></path></g></g><g id="Raggruppa_122" data-name="Raggruppa 122" transform="translate(329.69 17)"><path id="Tracciato_119" data-name="Tracciato 119" d="M201.2,15.572V6.034l2.959-1.724,2.954-1.724V15.57H201.2Zm-8.887,0V6.034l2.956-1.724,2.958-1.724V15.57H192.31Zm-8.889,0V6.034l2.96-1.724,2.959-1.724V15.57h-5.919ZM199.71,5.18V0l-8.887,5.18V0l-8.884,5.18V17.062H208.6V0Z" transform="translate(-181.939)" fill="#ada599"></path><rect id="Rettangolo_122" data-name="Rettangolo 122" width="26.658" height="1.451" transform="translate(0 19.307)" fill="#ada599"></rect></g></g></svg>